<svg width="32" height="32" viewBox="0 0 32 32" fill="none" xmlns="http://www.w3.org/2000/svg" id="plus">
<path d="M19.3438 16.6562V15.3438H16.6562V12.6562H15.3438V15.3438H12.6562V16.6562H15.3438V19.3438H16.6562V16.6562H19.3438ZM11.2812 11.3125C12.5938 10 14.1667 9.34375 16 9.34375C17.8333 9.34375 19.3958 10 20.6875 11.3125C22 12.6042 22.6562 14.1667 22.6562 16C22.6562 17.8333 22 19.4062 20.6875 20.7188C19.3958 22.0104 17.8333 22.6562 16 22.6562C14.1667 22.6562 12.5938 22.0104 11.2812 20.7188C9.98958 19.4062 9.34375 17.8333 9.34375 16C9.34375 14.1667 9.98958 12.6042 11.2812 11.3125Z" fill="currentColor"/>
</svg>
